mtllib D:/OneDrive_2/OneDrive/CGProgramings/qt3/box.mtl
v  -0.2 0.1 -0.3
v  0.3 0.1 -0.2
v  -0.2 0.7 -0.3
v  0.3 0.7 -0.2
v  -0.3 0.1 0.2
v  0.2 0.1 0.3
v  -0.3 0.7 0.2
v  0.2 0.7 0.3
v -20.0 -0.01 -1.0
v 20.0 -0.01 -1.0
v -20.0 -0.01 20.0
v 20.0 -0.01 20.0
v -20.0 10.0 -1.0
v 20.0 10.0 -1.0
vt 0.0 0.0
vt 1.0 0.0
vt 0.0 1.0
vt 1.0 1.0
vn 1.0 0.0 0.0
vn -1.0 0.0 0.0
vn 0.0 1.0 0.0
vn 0.0 -1.0 0.0
vn 0.0 0.0 1.0
vn 0.0 0.0 -1.0
vn  0.980581 0.0  0.196116
vn  0.196116 0.0 -0.980581
vn -0.980581 0.0 -0.196116
vn -0.196116 0.0  0.980581

usemtl mybox
f 1/4/8 3/2/8 4/1/8 2/3/8
f 1/3/9 5/4/9 7/2/9 3/1/9
f 5/3/10 6/4/10 8/2/10 7/1/10
f 2/4/7 4/2/7 8/1/7 6/3/7
f 3/1/3 7/3/3 8/4/3 4/2/3
f 1/3/4 2/4/4 6/2/4 5/1/4

usemtl mywall
f 9/1/3 11/3/3 12/4/3 10/2/3
f 9/1/5 10/3/5 14/4/5 13/2/5